<svg xmlns="http://www.w3.org/2000/svg" viewBox="0 0 821.18 821.12"><title>Asset 39</title><g id="Layer_2" data-name="Layer 2"><g id="Layer_1-2" data-name="Layer 1"><path d="M0,410.11C.37,183.44,184.52-.29,411,0s410.6,184.64,410.17,411c-.42,226.7-184.59,410.48-411,410.17S-.37,636.47,0,410.11ZM111.82,300.05c12.38-9.43,23.58-18.86,35.66-27,25.73-17.31,53.9-28.13,85.25-29.79,37-2,70.46,9,101.34,28.59,40.06,25.41,70.77,60.32,98.59,98.09,12.94,17.57,25.25,35.62,38.78,52.72,19.18,24.24,40.7,46.2,68.2,61.24,17,9.27,34.92,13.93,54.4,9.84s35.7-14.51,50.45-27.32c33-28.72,56.89-64.62,78.59-102.09,1.53-2.64,1.51-6.75.95-9.95C698.83,209.53,573.62,98.94,426.82,92.56c-88.11-3.83-165.43,23.83-231,83C157.77,209.89,130.16,251.45,111.82,300.05ZM709.73,519.87c-8.35,7-14.8,12.77-21.68,18-30.19,23.07-63.35,38.57-102.1,40-40.16,1.51-75.41-12.13-107.72-34.63-39.67-27.63-69.77-64.35-97.78-103.18-14.77-20.48-30.16-40.62-46.52-59.85-15.32-18-33.35-33.25-54.59-44.27-24.86-12.89-50.2-14.42-74.62-.26a210.54,210.54,0,0,0-38.48,28.87c-28,26.44-48.84,58.55-67.93,91.75-1.54,2.68-1.76,6.73-1.23,9.91C120.8,610.8,250.3,724.55,396.88,728.61c109.56,3,198.66-39.11,266.8-125C683.35,578.86,698.07,551.19,709.73,519.87Z"/></g></g></svg>